<svg width="1920" height="1080" viewBox="0 0 1920 1080" fill="none" xmlns="http://www.w3.org/2000/svg">
<path d="M0 571L45.7 580.3C91.3 589.7 182.7 608.3 274.2 601.5C365.7 594.7 457.3 562.3 548.8 551C640.3 539.7 731.7 549.3 823 562.8C914.3 576.3 1005.7 593.7 1097 602C1188.3 610.3 1279.7 609.7 1371.2 605C1462.7 600.3 1554.3 591.7 1645.8 585.5C1737.3 579.3 1828.7 575.7 1874.3 573.8L1920 572V1081H1874.3C1828.7 1081 1737.3 1081 1645.8 1081C1554.3 1081 1462.7 1081 1371.2 1081C1279.7 1081 1188.3 1081 1097 1081C1005.7 1081 914.3 1081 823 1081C731.7 1081 640.3 1081 548.8 1081C457.3 1081 365.7 1081 274.2 1081C182.7 1081 91.3 1081 45.7 1081H0V571Z" fill="#7420D5"/>
<path d="M0 605L45.7 604.2C91.3 603.3 182.7 601.7 274.2 613.5C365.7 625.3 457.3 650.7 548.8 650.3C640.3 650 731.7 624 823 610.2C914.3 596.3 1005.7 594.7 1097 606.5C1188.3 618.3 1279.7 643.7 1371.2 644.5C1462.7 645.3 1554.3 621.7 1645.8 614.8C1737.3 608 1828.7 618 1874.3 623L1920 628V1081H1874.3C1828.7 1081 1737.3 1081 1645.8 1081C1554.3 1081 1462.7 1081 1371.2 1081C1279.7 1081 1188.3 1081 1097 1081C1005.7 1081 914.3 1081 823 1081C731.7 1081 640.3 1081 548.8 1081C457.3 1081 365.7 1081 274.2 1081C182.7 1081 91.3 1081 45.7 1081H0V605Z" fill="#8B1EC9"/>
<path d="M0 778L45.7 764.5C91.3 751 182.7 724 274.2 701C365.7 678 457.3 659 548.8 671.3C640.3 683.7 731.7 727.3 823 746.7C914.3 766 1005.7 761 1097 739.2C1188.3 717.3 1279.7 678.7 1371.2 663.7C1462.7 648.7 1554.3 657.3 1645.8 674.2C1737.3 691 1828.7 716 1874.3 728.5L1920 741V1081H1874.3C1828.7 1081 1737.3 1081 1645.8 1081C1554.3 1081 1462.7 1081 1371.2 1081C1279.7 1081 1188.3 1081 1097 1081C1005.7 1081 914.3 1081 823 1081C731.7 1081 640.3 1081 548.8 1081C457.3 1081 365.7 1081 274.2 1081C182.7 1081 91.3 1081 45.7 1081H0V778Z" fill="#9C21BD"/>
<path d="M0 776L45.7 782.5C91.3 789 182.7 802 274.2 809.3C365.7 816.7 457.3 818.3 548.8 817.2C640.3 816 731.7 812 823 822.3C914.3 832.7 1005.7 857.3 1097 861C1188.3 864.7 1279.7 847.3 1371.2 841C1462.7 834.7 1554.3 839.3 1645.8 840.5C1737.3 841.7 1828.7 839.3 1874.3 838.2L1920 837V1081H1874.3C1828.7 1081 1737.3 1081 1645.8 1081C1554.3 1081 1462.7 1081 1371.2 1081C1279.7 1081 1188.3 1081 1097 1081C1005.7 1081 914.3 1081 823 1081C731.7 1081 640.3 1081 548.8 1081C457.3 1081 365.7 1081 274.2 1081C182.7 1081 91.3 1081 45.7 1081H0V776Z" fill="#A928B3"/>
<path d="M0 845L45.7 862.8C91.3 880.7 182.7 916.3 274.2 916.8C365.7 917.3 457.3 882.7 548.8 881.2C640.3 879.7 731.7 911.3 823 926.2C914.3 941 1005.7 939 1097 920.2C1188.3 901.3 1279.7 865.7 1371.2 861.7C1462.7 857.7 1554.3 885.3 1645.8 886.2C1737.3 887 1828.7 861 1874.3 848L1920 835V1081H1874.3C1828.7 1081 1737.3 1081 1645.8 1081C1554.3 1081 1462.7 1081 1371.2 1081C1279.7 1081 1188.3 1081 1097 1081C1005.7 1081 914.3 1081 823 1081C731.7 1081 640.3 1081 548.8 1081C457.3 1081 365.7 1081 274.2 1081C182.7 1081 91.3 1081 45.7 1081H0V845Z" fill="#B231A9"/>
<path d="M0 922L45.7 937C91.3 952 182.7 982 274.2 985C365.7 988 457.3 964 548.8 971C640.3 978 731.7 1016 823 1028.3C914.3 1040.7 1005.7 1027.3 1097 1022.8C1188.3 1018.3 1279.7 1022.7 1371.2 1028.7C1462.7 1034.7 1554.3 1042.3 1645.8 1045.3C1737.3 1048.3 1828.7 1046.7 1874.3 1045.8L1920 1045V1081H1874.3C1828.7 1081 1737.3 1081 1645.8 1081C1554.3 1081 1462.7 1081 1371.2 1081C1279.7 1081 1188.3 1081 1097 1081C1005.7 1081 914.3 1081 823 1081C731.7 1081 640.3 1081 548.8 1081C457.3 1081 365.7 1081 274.2 1081C182.7 1081 91.3 1081 45.7 1081H0V922Z" fill="#B93CA0"/>
</svg>
