<svg width="1440" height="1024" viewBox="0 0 1440 1024" fill="none" xmlns="http://www.w3.org/2000/svg">
<path d="M1440 0H0V1024H1440V0Z" fill="#001220"/>
<path d="M0 541.393L34.275 550.21C68.475 559.123 137.025 576.759 205.65 570.311C274.275 563.864 342.975 533.144 411.6 522.43C480.225 511.716 548.775 520.818 617.25 533.618C685.725 546.418 754.275 562.916 822.75 570.785C891.225 578.655 959.775 578.086 1028.4 573.63C1097.02 569.173 1165.73 561.019 1234.35 555.141C1302.98 549.262 1371.53 545.849 1405.73 544.047L1440 542.341V1024.95H1405.73C1371.53 1024.95 1302.98 1024.95 1234.35 1024.95C1165.73 1024.95 1097.02 1024.95 1028.4 1024.95C959.775 1024.95 891.225 1024.95 822.75 1024.95C754.275 1024.95 685.725 1024.95 617.25 1024.95C548.775 1024.95 480.225 1024.95 411.6 1024.95C342.975 1024.95 274.275 1024.95 205.65 1024.95C137.025 1024.95 68.475 1024.95 34.275 1024.95H0V541.393Z" fill="#7420D5"/>
<path d="M0 573.63L34.275 572.871C68.475 572.018 137.025 570.501 205.65 581.689C274.275 592.877 342.975 616.96 411.6 616.581C480.225 616.296 548.775 591.644 617.25 578.56C685.725 565.381 754.275 563.864 822.75 575.052C891.225 586.24 959.775 610.323 1028.4 611.081C1097.02 611.84 1165.73 589.464 1234.35 582.921C1302.98 576.474 1371.53 585.956 1405.73 590.696L1440 595.437V1024.95H1405.73C1371.53 1024.95 1302.98 1024.95 1234.35 1024.95C1165.73 1024.95 1097.02 1024.95 1028.4 1024.95C959.775 1024.95 891.225 1024.95 822.75 1024.95C754.275 1024.95 685.725 1024.95 617.25 1024.95C548.775 1024.95 480.225 1024.95 411.6 1024.95C342.975 1024.95 274.275 1024.95 205.65 1024.95C137.025 1024.95 68.475 1024.95 34.275 1024.95H0V573.63Z" fill="#8B1EC9"/>
<path d="M0 737.659L34.275 724.859C68.475 712.059 137.025 686.459 205.65 664.652C274.275 642.844 342.975 624.83 411.6 636.492C480.225 648.249 548.775 689.588 617.25 707.982C685.725 726.282 754.275 721.541 822.75 700.871C891.225 680.107 959.775 643.508 1028.4 629.286C1097.02 615.064 1165.73 623.218 1234.35 639.242C1302.98 655.17 1371.53 678.874 1405.73 690.726L1440 702.578V1024.95H1405.73C1371.53 1024.95 1302.98 1024.95 1234.35 1024.95C1165.73 1024.95 1097.02 1024.95 1028.4 1024.95C959.775 1024.95 891.225 1024.95 822.75 1024.95C754.275 1024.95 685.725 1024.95 617.25 1024.95C548.775 1024.95 480.225 1024.95 411.6 1024.95C342.975 1024.95 274.275 1024.95 205.65 1024.95C137.025 1024.95 68.475 1024.95 34.275 1024.95H0V737.659Z" fill="#9C21BD"/>
<path d="M0 735.763L34.275 741.926C68.475 748.089 137.025 760.415 205.65 767.336C274.275 774.353 342.975 775.87 411.6 774.827C480.225 773.689 548.775 769.896 617.25 779.662C685.725 789.523 754.275 812.847 822.75 816.356C891.225 819.864 959.775 803.366 1028.4 797.393C1097.02 791.419 1165.73 795.781 1234.35 796.918C1302.98 798.056 1371.53 795.781 1405.73 794.738L1440 793.6V1024.95H1405.73C1371.53 1024.95 1302.98 1024.95 1234.35 1024.95C1165.73 1024.95 1097.02 1024.95 1028.4 1024.95C959.775 1024.95 891.225 1024.95 822.75 1024.95C754.275 1024.95 685.725 1024.95 617.25 1024.95C548.775 1024.95 480.225 1024.95 411.6 1024.95C342.975 1024.95 274.275 1024.95 205.65 1024.95C137.025 1024.95 68.475 1024.95 34.275 1024.95H0V735.763Z" fill="#A928B3"/>
<path d="M0 801.185L34.275 818.062C68.475 835.034 137.025 868.788 205.65 869.262C274.275 869.736 342.975 836.93 411.6 835.508C480.225 834.086 548.775 864.047 617.25 878.175C685.725 892.207 754.275 890.311 822.75 872.486C891.225 854.566 959.775 820.812 1028.4 817.019C1097.02 813.227 1165.73 839.396 1234.35 840.249C1302.98 841.007 1371.53 816.356 1405.73 804.03L1440 791.704V1024.95H1405.73C1371.53 1024.95 1302.98 1024.95 1234.35 1024.95C1165.73 1024.95 1097.02 1024.95 1028.4 1024.95C959.775 1024.95 891.225 1024.95 822.75 1024.95C754.275 1024.95 685.725 1024.95 617.25 1024.95C548.775 1024.95 480.225 1024.95 411.6 1024.95C342.975 1024.95 274.275 1024.95 205.65 1024.95C137.025 1024.95 68.475 1024.95 34.275 1024.95H0V801.185Z" fill="#B231A9"/>
<path d="M0 874.193L34.275 888.415C68.475 902.637 137.025 931.081 205.65 933.926C274.275 936.77 342.975 914.015 411.6 920.652C480.225 927.289 548.775 963.319 617.25 974.981C685.725 986.738 754.275 974.033 822.75 969.766C891.225 965.499 959.775 969.671 1028.4 975.36C1097.02 981.049 1165.73 988.255 1234.35 991.099C1302.98 993.944 1371.53 992.427 1405.73 991.573L1440 990.815V1024.95H1405.73C1371.53 1024.95 1302.98 1024.95 1234.35 1024.95C1165.73 1024.95 1097.02 1024.95 1028.4 1024.95C959.775 1024.95 891.225 1024.95 822.75 1024.95C754.275 1024.95 685.725 1024.95 617.25 1024.95C548.775 1024.95 480.225 1024.95 411.6 1024.95C342.975 1024.95 274.275 1024.95 205.65 1024.95C137.025 1024.95 68.475 1024.95 34.275 1024.95H0V874.193Z" fill="#B93CA0"/>
</svg>
