<svg id="visual" viewBox="0 0 1920 1080" width="1920" height="1080" xmlns="http://www.w3.org/2000/svg" xmlns:xlink="http://www.w3.org/1999/xlink" version="1.1"><rect x="0" y="0" width="1920" height="1080" fill="#0b525b"></rect><path d="M0 454L80 443.2C160 432.3 320 410.7 480 427.8C640 445 800 501 960 475.5C1120 450 1280 343 1440 294C1600 245 1760 254 1840 258.5L1920 263L1920 0L1840 0C1760 0 1600 0 1440 0C1280 0 1120 0 960 0C800 0 640 0 480 0C320 0 160 0 80 0L0 0Z" fill="#4d194d" stroke-linecap="round" stroke-linejoin="miter"></path></svg>